<svg width="165" height="46" viewBox="0 0 165 46" fill="none" xmlns="http://www.w3.org/2000/svg">
<g clip-path="url(#clip0)">
<path d="M98.0096 0.181585C92.3494 0.181585 87.1552 2.21534 83.135 5.59281C79.0966 2.10638 73.8155 0 68.0548 0C55.3183 0 44.9983 10.255 44.9983 22.9115C44.9983 35.5634 55.3183 45.823 68.0548 45.823C73.7242 45.823 78.9138 43.7847 82.9294 40.4117C86.9724 43.8936 92.2397 46.0045 98.0141 46.0045C110.746 46.0045 121.066 35.745 121.066 23.0976C121.062 10.4366 110.742 0.181585 98.0096 0.181585Z" fill="#00A84D"/>
<path d="M13.6366 25.2221C14.4543 25.7442 14.9522 26.4978 14.9522 27.501C14.9522 29.6982 12.5721 30.706 9.62553 30.706C6.67894 30.706 4.29883 29.7028 4.29883 27.501C4.29883 25.3039 6.64696 24.3051 9.62553 24.3051L9.58442 24.2961H18.4425C18.5612 24.2961 18.6526 24.2007 18.6709 24.0555C18.68 23.9828 18.7257 23.6151 18.6663 23.311C18.6389 23.1839 18.5567 23.1021 18.4379 23.1021H11.0052V20.8142H18.0816C18.2049 20.8142 18.2963 20.7188 18.3191 20.5781C18.3283 20.51 18.3739 20.1332 18.3146 19.8291C18.2917 19.702 18.2003 19.6248 18.077 19.6248H4.6643C4.28512 19.6248 3.97447 19.3297 3.97447 18.9711V15.7162C3.97447 15.353 3.66839 15.0625 3.28465 15.0625H1.18321V19.5839C1.18321 20.2603 1.76796 20.8142 2.48976 20.8142H8.21391V23.1021H0L0.794895 24.2961H3.24354C2.1654 25.0269 1.52126 26.0484 1.52126 27.3603C1.52126 30.4972 5.15311 31.9226 9.62553 31.9226C14.098 31.9226 17.7298 30.4972 17.7298 27.3603C17.7298 26.5296 17.4785 25.8123 17.0126 25.2221H13.6366Z" fill="#00A84D"/>
<path d="M37.2595 20.8641H34.0206C34.0937 20.6099 34.1302 20.3375 34.1302 20.0651C34.1302 19.8155 34.0982 19.5703 34.0388 19.3252H37.2595V20.8641ZM37.2595 29.9797H27.401C27.1954 29.9797 27.0264 29.8208 27.0264 29.6165V27.5782H37.2595V29.9797ZM30.6628 18.1403C30.8045 18.2947 30.9324 18.4717 31.0329 18.6578C31.2659 19.071 31.4075 19.5522 31.4075 20.0651C31.4075 21.6449 30.2608 22.9206 28.5797 22.9206C26.8894 22.9206 25.7518 21.6449 25.7518 20.0651C25.7518 18.508 26.9625 17.2324 28.5477 17.2142H34.6373C34.7515 17.2142 34.8429 17.1189 34.8657 16.9782C34.8749 16.9101 34.9251 16.5333 34.8612 16.2291C34.8383 16.102 34.7515 16.0249 34.6327 16.0249H29.9776V15.3893C29.9776 15.0352 29.6715 14.7447 29.2878 14.7447H27.1817C27.1817 14.8491 27.1817 16.0294 27.1817 16.0294H21.8824C21.9921 16.1838 22.6408 17.1734 22.6728 17.2142H24.6691C23.6458 17.9406 23.0154 18.9484 23.0154 20.0651C23.0154 22.2805 25.2585 24.0691 28.5751 24.0691C30.8136 24.0691 32.4491 23.261 33.4084 22.0489H37.2595V26.3934H27.0264V25.1813C27.0264 24.8136 26.7203 24.5276 26.3366 24.5276H24.2351V29.9343C24.2351 30.6107 24.8245 31.1645 25.5371 31.1645H40.0645V15.7162C40.0645 15.353 39.7539 15.0625 39.3747 15.0625H37.255V18.1403H30.6628Z" fill="#00A84D"/>
<path d="M144.52 19.938H142.409V15.7025C142.409 15.3621 142.113 15.067 141.77 15.067H139.604V31.169H142.409V21.1274H144.52C144.712 21.1274 144.753 20.8959 144.753 20.5372C144.753 20.1741 144.707 19.938 144.52 19.938Z" fill="#00A84D"/>
<path d="M134.269 28.4952H129.44C129.097 28.4952 128.8 28.1956 128.8 27.8597V16.8874H134.269V28.4952ZM136.434 15.7026H125.995V28.4135C125.995 29.1126 126.571 29.6891 127.274 29.6891H137.078V16.3426C137.078 15.9976 136.781 15.7026 136.434 15.7026Z" fill="#00A84D"/>
<path d="M164.772 29.3441H146.242L147.01 30.529H164.767C164.959 30.529 164.995 30.2975 164.995 29.9343C165 29.5802 164.963 29.3441 164.772 29.3441Z" fill="#00A84D"/>
<path d="M149.015 26.0847H163.808C164 26.0847 164.045 25.8532 164.045 25.49C164.045 25.1314 164 24.8953 163.808 24.8953H151.181C150.838 24.8953 150.541 24.6002 150.541 24.2597V21.3362H163.593C163.785 21.3362 163.826 21.1047 163.826 20.7461C163.826 20.3829 163.785 20.1514 163.593 20.1514H150.541V16.8874H163.698C163.89 16.8874 163.936 16.6559 163.936 16.2927C163.936 15.9341 163.89 15.698 163.698 15.698H147.732V24.8045C147.736 25.5127 148.312 26.0847 149.015 26.0847Z" fill="#00A84D"/>
<path d="M64.9072 16.9101L61.1201 18.045L60.613 18.1948C60.3069 18.2901 60.0556 18.4808 59.8729 18.7078C59.6947 18.9484 59.3521 19.6656 59.6034 20.3874C59.7953 20.9186 60.9236 22.0898 60.9236 22.0898C61.4125 22.6391 61.7459 23.3473 61.7459 24.1417C61.7459 25.8668 60.3389 27.2695 58.5938 27.2695C56.8578 27.2695 55.4462 25.8668 55.4462 24.1417C55.4462 23.3473 55.7842 22.6391 56.2685 22.0898C56.2685 22.0898 57.3969 20.9186 57.5842 20.3874C57.84 19.6656 57.4974 18.9484 57.3146 18.7078C57.1365 18.4763 56.8806 18.2856 56.5746 18.1948L56.0675 18.045L52.2803 16.9101C51.5676 16.7013 50.8139 17.1008 50.5946 17.8044C50.3799 18.508 50.7819 19.2616 51.49 19.475L53.4452 20.0561C52.6047 21.1456 52.1021 22.4984 52.1021 23.9783C52.1021 27.5374 55.0076 30.42 58.5892 30.42C62.1754 30.42 65.0717 27.5374 65.0717 23.9783C65.0717 22.4984 64.5738 21.1456 63.7286 20.0561L65.6839 19.475C66.3965 19.2616 66.794 18.508 66.5884 17.8044C66.3646 17.0962 65.6108 16.7013 64.9072 16.9101Z" fill="white"/>
<path d="M58.5892 17.7363C59.5851 17.7363 60.4074 16.9328 60.4074 15.9341V12.089C60.4074 11.0948 59.5851 10.2777 58.5892 10.2777C57.5933 10.2777 56.7756 11.0903 56.7756 12.089V15.9341C56.7801 16.9328 57.5979 17.7363 58.5892 17.7363Z" fill="white"/>
<path d="M114.172 28.3363H106.909V26.4751H113.167C113.88 26.4751 114.46 25.894 114.46 25.1904C114.46 24.4822 113.88 23.9057 113.167 23.9057H99.8643V22.5619H112.615C112.637 22.5619 112.651 22.5574 112.669 22.5574C113.656 22.5392 114.456 21.7403 114.456 20.7552V17.6319C114.456 16.6423 113.638 15.8297 112.642 15.8297C112.619 15.8297 112.555 15.8297 112.546 15.8297H90.9149H90.9104C89.9144 15.8342 89.1059 16.6468 89.1059 17.6319V26.3888H78.32V17.6319C78.32 16.6468 77.5114 15.8387 76.5155 15.8297C76.5109 15.8297 76.5109 15.8297 76.5109 15.8297H69.3751H69.3523C69.3431 15.8297 69.334 15.8342 69.3294 15.8342C68.3518 15.866 67.5615 16.6559 67.5615 17.6364V29.9933C67.5615 30.9875 68.3792 31.7955 69.3797 31.7955C70.3801 31.7955 71.1933 30.992 71.1933 29.9933V18.4036H74.6881V27.156C74.6881 28.1502 75.5058 28.9628 76.5063 28.9628H76.5109H89.1104V29.9842C89.1104 30.9784 89.9236 31.7864 90.9241 31.7864C91.92 31.7864 92.7423 30.9829 92.7423 29.9842V18.4036H110.838V19.988H98.0324C98.0324 19.988 98.0233 19.988 98.0142 19.988C97.032 20.0061 96.2325 20.8096 96.2325 21.7947V24.6638C96.2325 25.6625 97.0502 26.4705 98.0507 26.4705C98.0644 26.4705 103.281 26.4705 103.281 26.4705V28.3318H96.9817C96.2782 28.3318 95.6889 28.9129 95.6889 29.6165C95.6889 30.3292 96.2782 30.9103 96.9817 30.9103H114.177C114.885 30.9103 115.474 30.3292 115.474 29.6165C115.465 28.9174 114.881 28.3363 114.172 28.3363Z" fill="white"/>
</g>
<defs>
<clipPath id="clip0">
<rect width="165" height="46" fill="white"/>
</clipPath>
</defs>
</svg>
